<svg width="201" height="202" viewBox="0 0 201 202" fill="none" xmlns="http://www.w3.org/2000/svg">
<g id="Group">
<g id="Group_2">
<path id="Vector" d="M94.2196 6.1511L89.6016 0.613492L91.8137 0.484344L94.6072 3.95543C94.7041 4.06844 94.7848 4.19761 94.8817 4.32676C94.9624 4.45592 95.0432 4.58507 95.1078 4.71423H95.1562C95.2208 4.58507 95.2854 4.43978 95.3338 4.29448C95.3984 4.14918 95.463 4.02002 95.5437 3.89086L97.9981 0.113012L100 0L96.0927 5.98966L96.2704 9.1863L94.4134 9.28317L94.2358 6.11882L94.2196 6.1511Z" fill="#A3FEFF"/>
<path id="Vector_2" d="M110.706 4.97235C110.948 3.43861 111.61 2.37306 112.692 1.79186C113.757 1.19451 115.049 1.01691 116.551 1.25908C118.053 1.50125 119.215 2.08246 120.055 2.98656C120.894 3.89066 121.185 5.10151 120.943 6.63525V6.76441C120.668 8.29815 120.006 9.34755 118.925 9.9449C117.843 10.5423 116.551 10.7037 115.065 10.4777C113.58 10.2355 112.417 9.65429 111.578 8.75019C110.738 7.84609 110.463 6.63525 110.706 5.10151V4.97235ZM113.047 7.97526C113.564 8.54032 114.29 8.8955 115.275 9.05694C116.244 9.21839 117.068 9.10538 117.746 8.73406C118.408 8.36273 118.828 7.65237 119.005 6.60296L119.07 6.1832C119.231 5.1338 119.07 4.32657 118.553 3.76151C118.036 3.19644 117.294 2.84126 116.325 2.67982C115.34 2.51837 114.533 2.63138 113.87 3.00271C113.208 3.37403 112.789 4.0844 112.627 5.1338L112.563 5.55356C112.385 6.60296 112.563 7.41019 113.063 7.97526H113.047Z" fill="#A3FEFF"/>
<path id="Vector_3" d="M133.296 5.58599L135.04 6.28021L133.037 11.3012C132.747 12.0277 132.747 12.6574 133.054 13.174C133.36 13.6906 133.893 14.1104 134.668 14.4171C135.427 14.7239 136.105 14.7884 136.671 14.6109C137.252 14.4333 137.688 13.9812 137.978 13.2547L139.981 8.21758L141.676 8.89565L139.706 13.8521C139.222 15.0629 138.463 15.8056 137.429 16.0477C136.396 16.306 135.282 16.193 134.119 15.7248C132.941 15.2566 132.069 14.5786 131.487 13.6745C130.906 12.7704 130.858 11.721 131.342 10.494L133.312 5.55371L133.296 5.58599Z" fill="#A3FEFF"/>
<path id="Vector_4" d="M152.688 14.7402L156.095 17.0166C157.209 17.7593 157.952 18.5342 158.307 19.3253C158.663 20.1326 158.582 20.9075 158.065 21.6824C157.565 22.4412 156.87 22.7964 155.982 22.7964C155.094 22.7964 154.093 22.4089 152.963 21.6986L151.122 20.4716L149.281 23.2323L147.715 22.1991L152.688 14.7402ZM153.689 20.5685C154.416 21.0528 155.013 21.295 155.449 21.2788C155.901 21.2788 156.241 21.0689 156.499 20.6815C156.773 20.2778 156.822 19.8742 156.644 19.4868C156.467 19.0993 156.015 18.6634 155.288 18.1791L153.431 16.9521L151.832 19.3576L153.673 20.5846L153.689 20.5685ZM153.318 20.9398L154.997 22.0376L155.159 27.1555L153.334 25.9446V20.9236L153.318 20.9398Z" fill="#A3FEFF"/>
<path id="Vector_5" d="M178.169 36.8418L180.462 39.8932C181.399 41.1363 181.867 42.3956 181.899 43.6872C181.932 44.9787 181.366 46.0443 180.204 46.9161L180.091 46.9968C178.928 47.8686 177.75 48.1108 176.522 47.7072C175.295 47.3197 174.213 46.4963 173.277 45.2532L171 42.2019L178.169 36.8257V36.8418ZM174.375 44.4137C175.021 45.2693 175.731 45.8344 176.506 46.0604C177.281 46.3026 178.089 46.0927 178.912 45.4792L179.074 45.3662C179.913 44.7527 180.317 44.0262 180.301 43.219C180.301 42.4117 179.962 41.5722 179.316 40.7165L178.153 39.1667L173.212 42.8638L174.375 44.4137Z" fill="#A3FEFF"/>
<path id="Vector_6" d="M189.892 54.7627L193.169 61.7856L191.878 62.3991L189.391 57.0552L187.389 57.9916L189.569 62.6736L188.293 63.2548L186.113 58.589L183.853 59.6384L186.371 65.0468L185.08 65.6442L181.77 58.5567L189.892 54.7627Z" fill="#A3FEFF"/>
<path id="Vector_7" d="M190.892 74.0555L191.344 75.8959L191.215 75.9282C190.763 76.0412 190.472 76.348 190.375 76.8485C190.262 77.349 190.311 78.0109 190.504 78.8181C190.698 79.6254 190.956 80.2227 191.263 80.6102C191.586 80.9976 191.909 81.1591 192.264 81.0784C192.587 80.9976 192.813 80.7555 192.91 80.3357C193.007 79.916 193.039 79.0119 192.959 77.6073C192.894 76.2027 192.975 75.1856 193.233 74.5559C193.492 73.9263 193.976 73.5227 194.719 73.3451C195.478 73.1675 196.172 73.3774 196.802 74.007C197.431 74.6205 197.916 75.5892 198.223 76.8808C198.529 78.1562 198.529 79.2379 198.206 80.1097C197.884 80.9976 197.351 81.5304 196.624 81.6919L196.479 81.7242L196.043 79.916L196.172 79.8837C196.576 79.7868 196.834 79.5123 196.963 79.0603C197.092 78.6082 197.06 77.9786 196.882 77.2037C196.689 76.4287 196.463 75.8636 196.188 75.5246C195.914 75.1856 195.591 75.0564 195.235 75.1371C194.945 75.2017 194.767 75.46 194.686 75.8798C194.606 76.2996 194.59 77.1875 194.654 78.5275C194.703 79.916 194.622 80.9331 194.396 81.5789C194.17 82.2246 193.653 82.6444 192.846 82.8381C192.022 83.0319 191.279 82.7897 190.633 82.1278C189.988 81.4497 189.487 80.4649 189.18 79.141C188.873 77.8333 188.841 76.7193 189.099 75.7829C189.358 74.8627 189.923 74.2976 190.779 74.0877L190.924 74.0555H190.892Z" fill="#A3FEFF"/>
<path id="Vector_8" d="M200.644 92.3315L201 101.663L199.563 101.712L199.417 97.9822L191.893 98.2566L191.828 96.3839L199.353 96.1094L199.207 92.38L200.644 92.3315Z" fill="#A3FEFF"/>
<path id="Vector_9" d="M200.128 113.061L199.869 114.934L190.988 113.739L191.247 111.866L200.128 113.061Z" fill="#A3FEFF"/>
<path id="Vector_10" d="M197.449 127.075L196.867 128.867L189.763 131.821C189.569 131.886 189.359 131.95 189.117 132.015C188.874 132.08 188.681 132.112 188.535 132.128V132.193C188.648 132.209 188.794 132.241 188.955 132.273C189.117 132.306 189.262 132.354 189.391 132.386L195.14 134.243L194.639 135.777L186.113 133.016L186.711 131.175L193.606 128.253C193.848 128.173 194.09 128.108 194.365 128.043C194.639 127.995 194.833 127.947 194.978 127.93L195.01 127.85C194.881 127.834 194.72 127.801 194.542 127.769C194.365 127.737 194.219 127.704 194.09 127.656L188.455 125.832L188.955 124.298L197.481 127.059L197.449 127.075Z" fill="#A3FEFF"/>
<path id="Vector_11" d="M187.938 150.016L186.937 151.744L176.941 151.017L177.991 149.225L184.708 149.855C184.999 149.887 185.273 149.935 185.532 149.984C185.79 150.032 186.032 150.081 186.242 150.113L186.274 150.048C186.129 149.887 185.968 149.693 185.806 149.499C185.629 149.306 185.467 149.08 185.289 148.837L181.414 143.3L182.318 141.75L187.938 150.032V150.016ZM183.982 145.625L181.204 150.42L179.735 150.21L183.061 144.462L183.982 145.625Z" fill="#A3FEFF"/>
<path id="Vector_12" d="M178.99 163.367L172.838 170.39L171.756 169.454L174.211 166.645L168.543 161.688L169.77 160.284L175.438 165.24L177.892 162.431L178.974 163.383L178.99 163.367Z" fill="#A3FEFF"/>
<path id="Vector_13" d="M164.414 178.075L162.944 179.27L157.293 172.312L158.762 171.117L164.414 178.075Z" fill="#A3FEFF"/>
<path id="Vector_14" d="M151.073 182.403C151.815 183.759 151.944 185.002 151.46 186.132C150.976 187.262 150.071 188.183 148.731 188.925C147.407 189.652 146.132 189.91 144.904 189.716C143.693 189.523 142.708 188.732 141.966 187.375L141.901 187.262C141.158 185.906 141.029 184.663 141.513 183.517C141.998 182.387 142.918 181.45 144.242 180.724C145.566 179.997 146.842 179.739 148.053 179.933C149.264 180.143 150.249 180.918 150.992 182.274L151.056 182.387L151.073 182.403ZM147.375 181.483C146.632 181.353 145.825 181.531 144.953 181.999C144.081 182.467 143.499 183.065 143.209 183.759C142.918 184.453 143.015 185.277 143.532 186.213L143.742 186.584C144.258 187.521 144.888 188.053 145.631 188.166C146.374 188.296 147.197 188.118 148.053 187.65C148.925 187.166 149.506 186.584 149.797 185.89C150.088 185.196 149.975 184.372 149.474 183.452L149.264 183.065C148.747 182.128 148.118 181.596 147.375 181.466V181.483Z" fill="#A3FEFF"/>
<path id="Vector_15" d="M132.748 195.851L130.939 196.368L124.513 192.138C124.351 192.025 124.174 191.879 123.98 191.702C123.786 191.524 123.641 191.395 123.56 191.298H123.496C123.56 191.443 123.625 191.589 123.673 191.734C123.738 191.879 123.786 192.025 123.818 192.154L125.498 197.95L123.948 198.402L121.461 189.781L123.318 189.248L129.599 193.332C129.793 193.478 129.987 193.655 130.197 193.849C130.39 194.043 130.536 194.188 130.633 194.285H130.713C130.665 194.14 130.6 193.994 130.536 193.833C130.471 193.671 130.423 193.526 130.374 193.381L128.727 187.682L130.277 187.23L132.764 195.851H132.748Z" fill="#A3FEFF"/>
<path id="Vector_16" d="M98.7056 201.081L96.8164 201.033L97.0424 192.073L98.9317 192.121L98.7056 201.081Z" fill="#A3FEFF"/>
<path id="Vector_17" d="M86.2752 193.881L84.4021 193.509L84.4344 193.38C84.5313 192.928 84.3698 192.541 83.9661 192.234C83.5624 191.927 82.9489 191.685 82.1254 191.507C81.318 191.346 80.656 191.33 80.1716 191.443C79.671 191.556 79.3965 191.798 79.3319 192.153C79.2673 192.476 79.3965 192.783 79.7356 193.057C80.0746 193.332 80.882 193.719 82.19 194.252C83.4979 194.785 84.386 195.301 84.8381 195.786C85.2902 196.27 85.4517 196.9 85.3064 197.642C85.1449 198.401 84.6605 198.934 83.837 199.241C83.0135 199.547 81.9316 199.58 80.6237 199.321C79.3319 199.063 78.3631 198.595 77.701 197.933C77.039 197.271 76.7806 196.561 76.926 195.834L76.9582 195.689L78.7829 196.06V196.189C78.686 196.593 78.8152 196.948 79.1704 197.255C79.5257 197.562 80.107 197.804 80.882 197.965C81.6733 198.127 82.2868 198.159 82.7066 198.046C83.1265 197.949 83.3849 197.707 83.4494 197.352C83.514 197.061 83.3687 196.787 83.0134 196.528C82.6582 196.27 81.867 195.883 80.6237 195.382C79.3481 194.849 78.46 194.333 77.9594 193.848C77.4588 193.364 77.2973 192.718 77.4588 191.911C77.6203 191.088 78.1531 190.523 79.0412 190.2C79.9293 189.893 81.0273 189.877 82.3514 190.135C83.6755 190.393 84.6928 190.845 85.4194 191.475C86.146 192.105 86.4367 192.847 86.259 193.719L86.2268 193.864L86.2752 193.881Z" fill="#A3FEFF"/>
<path id="Vector_18" d="M55.3688 185.615C54.5776 186.939 53.5603 187.682 52.3493 187.843C51.1382 188.005 49.8788 187.682 48.5708 186.907C47.2791 186.132 46.4071 185.163 45.955 184.001C45.519 182.855 45.6966 181.612 46.4878 180.288L46.5524 180.175C47.3436 178.851 48.3609 178.108 49.5881 177.963C50.8153 177.818 52.0748 178.124 53.3666 178.915C54.6583 179.69 55.5303 180.659 55.9663 181.805C56.4022 182.952 56.2246 184.195 55.4334 185.519L55.3688 185.632V185.615ZM54.3031 181.951C54.0447 181.24 53.4796 180.627 52.6399 180.126C51.8003 179.61 50.9929 179.416 50.234 179.513C49.4751 179.61 48.8292 180.11 48.2802 181.03L48.0541 181.402C47.5051 182.306 47.3759 183.129 47.6343 183.84C47.9088 184.55 48.4578 185.163 49.3136 185.68C50.1532 186.197 50.9606 186.39 51.7034 186.294C52.4623 186.197 53.1082 185.68 53.6572 184.776L53.8833 184.405C54.4323 183.484 54.5776 182.677 54.3192 181.967L54.3031 181.951Z" fill="#A3FEFF"/>
<path id="Vector_19" d="M34.5552 176.638L33.1989 175.363L36.9289 171.424C37.4617 170.859 37.6878 170.277 37.6071 169.68C37.5263 169.083 37.1711 168.501 36.5736 167.92C35.9762 167.355 35.3787 167.048 34.7813 166.984C34.1838 166.935 33.6187 167.194 33.0697 167.759L29.3397 171.698L28.0156 170.439L31.681 166.564C32.5853 165.612 33.5541 165.208 34.6198 165.369C35.6694 165.515 36.6705 166.031 37.5748 166.887C38.4952 167.759 39.0603 168.711 39.2541 169.761C39.464 170.81 39.1087 171.811 38.2207 172.764L34.5552 176.638Z" fill="#A3FEFF"/>
<path id="Vector_20" d="M19.9556 160.978L17.6304 157.604C16.8715 156.506 16.4678 155.505 16.4355 154.633C16.4032 153.761 16.7746 153.051 17.5336 152.518C18.2763 152.001 19.0675 151.921 19.8749 152.26C20.6984 152.599 21.4896 153.309 22.2647 154.391L23.5242 156.215L26.2692 154.326L27.3349 155.86L19.9556 160.946V160.978ZM21.1667 155.198C20.6661 154.472 20.214 154.052 19.7942 153.89C19.3743 153.745 18.9707 153.793 18.5993 154.052C18.1956 154.326 18.0018 154.681 18.018 155.101C18.0341 155.537 18.2925 156.102 18.793 156.829L20.0525 158.669L22.4262 157.022L21.1667 155.198ZM21.6672 154.988L20.5208 153.341L22.2647 148.514L23.508 150.322L21.6672 154.988Z" fill="#A3FEFF"/>
<path id="Vector_21" d="M4.40753 130.949L3.87467 128.801L9.42932 123.861C9.54235 123.764 9.67152 123.651 9.80069 123.538C9.92987 123.425 10.0429 123.328 10.1559 123.264V123.215C10.0268 123.215 9.88145 123.183 9.71998 123.151C9.55851 123.119 9.39702 123.086 9.25169 123.054L2.01775 121.246L1.46875 119.05L10.1721 116.871L10.6242 118.663L4.68203 120.148C4.55285 120.18 4.40755 120.213 4.24607 120.229C4.0846 120.245 3.93928 120.277 3.79395 120.293V120.342C3.95543 120.342 4.10073 120.342 4.27835 120.342C4.45597 120.342 4.61745 120.374 4.76277 120.406L11.4962 122.085L11.916 123.764L6.76503 128.398C6.652 128.495 6.52282 128.592 6.37749 128.688C6.23217 128.785 6.10299 128.866 5.97381 128.914V128.963C6.11914 128.914 6.26447 128.866 6.40979 128.818C6.55512 128.769 6.7166 128.721 6.84578 128.688L12.7879 127.203L13.1593 128.705L4.45597 130.868L4.40753 130.949Z" fill="#A3FEFF"/>
<path id="Vector_22" d="M0.0968793 106.7L0 104.811L8.96171 104.343L9.05859 106.232L0.113018 106.7H0.0968793Z" fill="#A3FEFF"/>
<path id="Vector_23" d="M6.3154 93.8164L6.54146 91.9274H6.67064C7.13891 92.0082 7.49412 91.8144 7.78477 91.3785C8.07542 90.9426 8.25304 90.313 8.36607 89.4896C8.46296 88.6662 8.43068 88.0204 8.28536 87.5361C8.12389 87.0518 7.86551 86.7935 7.51027 86.745C7.17118 86.6966 6.89669 86.858 6.63833 87.2132C6.39613 87.5684 6.05704 88.4241 5.63722 89.7641C5.21739 91.1041 4.76525 92.0243 4.31313 92.5248C3.86101 93.0253 3.26357 93.2351 2.50465 93.1383C1.72959 93.0414 1.16444 92.5894 0.793051 91.7983C0.421665 91.0072 0.308615 89.9255 0.470087 88.6016C0.631559 87.2939 1.00296 86.293 1.61655 85.5826C2.23014 84.8722 2.90832 84.5493 3.65109 84.6462H3.79643L3.57037 86.519H3.44119C3.03751 86.4544 2.68228 86.6159 2.40777 87.0033C2.11712 87.3908 1.93949 87.972 1.84261 88.7631C1.74573 89.5542 1.76186 90.1677 1.90719 90.5874C2.05251 91.0072 2.29472 91.2332 2.66611 91.2817C2.95676 91.3139 3.21513 91.1525 3.44119 90.7812C3.66725 90.4099 3.99019 89.5865 4.39387 88.3111C4.82985 86.9872 5.26581 86.0669 5.71793 85.5342C6.15391 85.0014 6.78367 84.7915 7.60718 84.8884C8.44683 84.9852 9.06041 85.4696 9.4318 86.3252C9.80318 87.1971 9.91621 88.2949 9.75474 89.6349C9.59326 90.9749 9.23803 92.0243 8.67288 92.7993C8.10772 93.5742 7.3811 93.9132 6.50915 93.8002H6.36384L6.3154 93.8164Z" fill="#A3FEFF"/>
<path id="Vector_24" d="M9.63975 74.9112L10.2533 73.103L10.3825 73.1353C10.8185 73.2806 11.2222 73.1837 11.5935 72.8124C11.9488 72.4411 12.2717 71.876 12.5301 71.0849C12.7884 70.31 12.9015 69.6642 12.8369 69.1637C12.7884 68.6632 12.5785 68.3565 12.2394 68.2273C11.9165 68.1143 11.6097 68.2273 11.2868 68.5179C10.98 68.8247 10.4794 69.5835 9.78507 70.8105C9.09073 72.0374 8.47715 72.8447 7.92815 73.2483C7.37914 73.6358 6.7494 73.7165 6.03892 73.4905C5.29615 73.2483 4.82788 72.6832 4.61796 71.8276C4.40805 70.9719 4.52106 69.9064 4.95704 68.6309C5.37687 67.3878 5.95817 66.4837 6.70094 65.9025C7.44371 65.3213 8.17035 65.1598 8.88082 65.402L9.02614 65.4504L8.4287 67.2102L8.29952 67.1618C7.91199 67.0326 7.5406 67.1295 7.18536 67.4362C6.83012 67.743 6.52334 68.2919 6.26498 69.0507C6.00663 69.8095 5.90974 70.423 5.95818 70.8589C6.00662 71.2948 6.20038 71.5693 6.55562 71.6823C6.83012 71.7791 7.12079 71.6661 7.42759 71.3432C7.71824 71.0203 8.20265 70.2938 8.86469 69.1314C9.55902 67.9367 10.1726 67.1133 10.7216 66.6936C11.2706 66.2738 11.9165 66.1769 12.7077 66.4353C13.5151 66.7097 13.9995 67.3071 14.1932 68.2273C14.387 69.1476 14.274 70.2454 13.838 71.537C13.402 72.8124 12.8369 73.7649 12.1264 74.4107C11.4159 75.0565 10.6409 75.2341 9.8012 74.9596L9.65588 74.9112H9.63975Z" fill="#A3FEFF"/>
<path id="Vector_25" d="M11.5156 53.7779L12.4199 52.115L20.3159 56.3772L19.4116 58.0401L11.5318 53.7779H11.5156Z" fill="#A3FEFF"/>
<path id="Vector_26" d="M22.1872 44.6401C20.9762 43.6714 20.3787 42.5736 20.3948 41.3466C20.3948 40.1196 20.8793 38.9087 21.832 37.7302C22.7846 36.5516 23.8504 35.809 25.0614 35.5184C26.2563 35.2439 27.4673 35.5829 28.6784 36.5355L28.7914 36.6162C30.0024 37.5849 30.5999 38.6827 30.5837 39.9097C30.5676 41.1367 30.0832 42.3475 29.1466 43.5261C28.2101 44.7047 27.1282 45.4473 25.9333 45.7218C24.7384 45.9962 23.5274 45.6572 22.3325 44.6885L22.2195 44.6078L22.1872 44.6401ZM25.9495 44.075C26.6922 43.9136 27.3704 43.4454 27.984 42.6704C28.5976 41.8955 28.9206 41.1367 28.9206 40.3617C28.9206 39.603 28.5169 38.8764 27.6772 38.2145L27.3381 37.9401C26.5146 37.2781 25.7234 37.036 24.9807 37.1974C24.2379 37.3588 23.5597 37.8432 22.9461 38.6181C22.3325 39.3931 22.0257 40.1519 22.0257 40.9107C22.0257 41.6695 22.4455 42.3798 23.2691 43.0418L23.6081 43.3162C24.4316 43.9782 25.2229 44.2365 25.9656 44.0589L25.9495 44.075Z" fill="#A3FEFF"/>
<path id="Vector_27" d="M33.8945 25.1692L35.3639 23.9906L42.937 25.4113C43.1307 25.4598 43.3406 25.5243 43.599 25.6051C43.8412 25.6858 44.0188 25.7665 44.148 25.8149L44.2126 25.7665C44.1157 25.6696 44.0027 25.5728 43.8896 25.4598C43.7766 25.3467 43.6797 25.2337 43.599 25.1207L39.8206 20.4226L41.08 19.4055L46.6993 26.3961L45.1814 27.607L37.8022 26.267C37.5599 26.2024 37.3177 26.1217 37.0594 26.0248C36.801 25.928 36.6073 25.8472 36.4942 25.7827L36.4296 25.8311C36.5265 25.928 36.6396 26.041 36.7687 26.154C36.8979 26.2831 36.9948 26.3961 37.0917 26.5092L40.8055 31.1265L39.5622 32.1275L33.943 25.153L33.8945 25.1692Z" fill="#A3FEFF"/>
<path id="Vector_28" d="M64.5094 9.83194C64.7193 9.3476 65.0745 9.00855 65.6074 8.79867C66.1402 8.60494 66.6408 8.62109 67.1091 8.84712C67.5774 9.07314 67.9164 9.42832 68.0941 9.9288C68.2717 10.4131 68.2555 10.8813 68.0618 11.3657C67.8519 11.85 67.4966 12.1891 66.9637 12.3989C66.4309 12.5927 65.9303 12.5765 65.4621 12.3505C64.9938 12.1245 64.6547 11.7693 64.4771 11.2849C64.2995 10.8006 64.2995 10.3163 64.5094 9.83194Z" fill="#A3FEFF"/>
</g>
</g>
</svg>
