<svg width="134" height="40" viewBox="0 0 134 40" fill="none" xmlns="http://www.w3.org/2000/svg">
<mask id="mask0_141_1987" style="mask-type:luminance" maskUnits="userSpaceOnUse" x="0" y="0" width="134" height="40">
<path d="M134 0H0V40H134V0Z" fill="white"/>
</mask>
<g mask="url(#mask0_141_1987)">
<path d="M29.2355 12.1367H20.8633V27.8607H29.2355V12.1367Z" fill="#FF5F00"/>
<path d="M21.3951 19.9981C21.3938 18.4838 21.7222 16.989 22.3553 15.6269C22.9885 14.2648 23.9098 13.071 25.0497 12.136C23.6382 10.9765 21.943 10.2555 20.1578 10.0552C18.3726 9.85492 16.5697 10.1837 14.9549 11.0037C13.34 11.8238 11.9786 13.1022 11.026 14.6927C10.0735 16.2832 9.56836 18.1217 9.56836 19.9981C9.56836 21.8745 10.0735 23.713 11.026 25.3035C11.9786 26.894 13.34 28.1723 14.9549 28.9925C16.5697 29.8125 18.3726 30.1411 20.1578 29.941C21.943 29.7407 23.6382 29.0196 25.0497 27.8601C23.9098 26.9251 22.9885 25.7314 22.3553 24.3693C21.7222 23.0072 21.3938 21.5124 21.3951 19.9981Z" fill="#EB001B"/>
<path d="M40.5316 20C40.5317 21.8764 40.0266 23.7149 39.0742 25.3054C38.1216 26.8959 36.7602 28.1743 35.1454 28.9944C33.5306 29.8144 31.7276 30.1431 29.9425 29.9429C28.1575 29.7427 26.4623 29.0216 25.0508 27.862C26.1896 26.9261 27.1103 25.7322 27.7433 24.3703C28.3764 23.0084 28.7053 21.5141 28.7053 20C28.7053 18.4859 28.3764 16.9916 27.7433 15.6297C27.1103 14.2678 26.1896 13.0739 25.0508 12.138C26.4623 10.9785 28.1575 10.2574 29.9425 10.0571C31.7276 9.85687 33.5306 10.1856 35.1454 11.0057C36.7602 11.8257 38.1216 13.1041 39.0742 14.6946C40.0266 16.2852 40.5317 18.1237 40.5316 20Z" fill="#F79E1B"/>
<path d="M39.618 26.1967V25.8748H39.7422V25.8092H39.4258V25.8748H39.5501V26.1967H39.618ZM40.2323 26.1967V25.8086H40.1353L40.0237 26.0756L39.9121 25.8086H39.8151V26.1967H39.8836V25.904L39.9882 26.1564H40.0592L40.1638 25.9033V26.1967H40.2323Z" fill="#F79E1B"/>
<path d="M50.2763 30.0547H49.9219V26.6805V19.9316V13.1827V9.80859H50.2763V16.5572V23.3061V30.0547Z" fill="#434346"/>
<path d="M60.0842 26.1964H59.0898V14.2705H60.0842V26.1964ZM67.3383 14.2705C68.2106 14.2575 69.0787 14.3986 69.9058 14.6879C70.6248 14.9403 71.2855 15.3465 71.8458 15.8805C72.383 16.4045 72.8032 17.0458 73.0764 17.7588C73.6526 19.3536 73.6526 21.1132 73.0764 22.708C72.8032 23.421 72.383 24.0624 71.8458 24.5864C71.2855 25.1205 70.6248 25.5267 69.9058 25.7791C69.0787 26.0684 68.2106 26.2095 67.3383 26.1964H63.1732V14.2705H67.3383ZM64.1676 15.2586V25.2083H67.3383C68.0858 25.2222 68.8301 25.1026 69.5392 24.8547C70.136 24.6434 70.6832 24.3023 71.1448 23.8539C71.5831 23.4164 71.9204 22.8803 72.1311 22.2864C72.5765 20.9573 72.5765 19.5095 72.1311 18.1805C71.9198 17.5856 71.5827 17.0484 71.1448 16.6089C70.6846 16.1585 70.137 15.8171 69.5392 15.6079C68.8295 15.363 68.0855 15.2449 67.3383 15.2586H64.1676ZM85.0661 14.1342C85.5437 14.1328 86.0198 14.19 86.4846 14.3046C86.9296 14.4138 87.3605 14.5783 87.7681 14.7944C88.1596 15.0017 88.524 15.2608 88.8523 15.5653C89.173 15.8633 89.4516 16.2075 89.6796 16.5876L88.8482 17.1667C88.6527 16.8545 88.4183 16.571 88.1513 16.3235C87.8815 16.073 87.583 15.8584 87.2628 15.6845C86.9322 15.5057 86.5819 15.3698 86.2196 15.2799C85.8418 15.1856 85.4546 15.1384 85.0661 15.1394C84.4179 15.1335 83.7745 15.2578 83.1711 15.5056C82.6008 15.7404 82.0823 16.0941 81.647 16.545C81.2078 17.005 80.8613 17.5525 80.6282 18.155C80.1337 19.4924 80.1337 20.9745 80.6282 22.312C80.8613 22.9145 81.2077 23.462 81.647 23.922C82.0822 24.3729 82.6008 24.7265 83.1711 24.9612C83.7745 25.2092 84.4179 25.3336 85.0661 25.3275C85.453 25.3287 85.8386 25.283 86.2155 25.1912C86.5765 25.1037 86.9257 24.9692 87.2547 24.7908C87.575 24.6171 87.8734 24.4025 88.1432 24.152C88.4117 23.9027 88.6462 23.616 88.8401 23.3001L89.6551 23.922C89.4178 24.2946 89.1341 24.6326 88.8115 24.9271C88.4842 25.2253 88.1229 25.4799 87.7357 25.6853C87.3333 25.8986 86.9078 26.0602 86.4682 26.1666C85.2285 26.4616 83.9326 26.3622 82.7473 25.8812C82.0552 25.5955 81.4249 25.1684 80.893 24.6247C80.3638 24.0762 79.9465 23.4213 79.6663 22.6995C79.0741 21.1152 79.0741 19.356 79.6663 17.7717C79.9458 17.0482 80.3632 16.3918 80.893 15.8421C81.4249 15.2985 82.0553 14.8713 82.7473 14.5856C83.4851 14.2801 84.2726 14.1269 85.0661 14.1342ZM92.7361 19.5689C92.8817 19.3161 93.0615 19.0866 93.27 18.8875C93.4689 18.6979 93.6926 18.5387 93.9342 18.4147C94.1728 18.2928 94.4246 18.2013 94.6841 18.1422C94.9411 18.083 95.2034 18.0529 95.4666 18.0527C95.9136 18.0473 96.3577 18.1237 96.7789 18.2784C97.1579 18.4179 97.5063 18.6368 97.8021 18.9215C98.0911 19.2059 98.3161 19.5535 98.4625 19.9395C98.6214 20.3668 98.7008 20.8225 98.6941 21.2812V26.1964H97.7657V21.5794C97.7705 21.2089 97.715 20.8402 97.602 20.4889C97.5025 20.1809 97.3379 19.9 97.1215 19.667C96.9024 19.438 96.6382 19.2621 96.3472 19.1516C96.0122 19.027 95.6588 18.9664 95.3036 18.9727C94.9595 18.9699 94.618 19.0349 94.297 19.1643C93.9928 19.2866 93.7155 19.472 93.482 19.7096C93.2479 19.9497 93.0622 20.2364 92.936 20.5528C92.7998 20.8941 92.7318 21.2607 92.736 21.6304V26.1964H91.8068V13.9297H92.7361V19.5689ZM104.221 18.0527C104.71 18.0481 105.194 18.1512 105.643 18.3551C106.073 18.5509 106.458 18.8381 106.776 19.1984C107.104 19.576 107.359 20.0155 107.53 20.4933C107.719 21.0203 107.816 21.5787 107.815 22.1416C107.815 22.2154 107.814 22.2851 107.811 22.3502C107.808 22.4156 107.804 22.4795 107.799 22.542H101.368C101.391 22.9724 101.493 23.3942 101.665 23.7856C101.821 24.1352 102.041 24.4493 102.313 24.7098C102.58 24.9628 102.891 25.1582 103.23 25.2849C103.584 25.4172 103.958 25.4835 104.335 25.4808C104.831 25.4898 105.323 25.3851 105.778 25.1741C106.204 24.9678 106.593 24.6853 106.927 24.3393L107.424 25.0038C107.197 25.2437 106.948 25.4579 106.679 25.6427C106.435 25.8081 106.175 25.9452 105.903 26.0515C105.644 26.1527 105.375 26.2241 105.101 26.2645C104.828 26.3043 104.553 26.3242 104.278 26.3242C103.748 26.33 103.221 26.2272 102.729 26.0217C102.27 25.8298 101.854 25.5413 101.506 25.1741C101.158 24.801 100.886 24.3575 100.708 23.8708C100.512 23.3352 100.415 22.7658 100.423 22.1926C100.417 21.6233 100.515 21.0581 100.712 20.5273C100.893 20.0392 101.164 19.5933 101.51 19.2155C101.853 18.8473 102.263 18.5559 102.717 18.3594C103.194 18.1525 103.705 18.0482 104.221 18.0527ZM104.204 18.913C103.838 18.9083 103.473 18.9792 103.132 19.1217C102.816 19.2565 102.527 19.4531 102.281 19.701C102.032 19.9546 101.829 20.2533 101.681 20.5827C101.523 20.9374 101.423 21.3176 101.385 21.7072H106.87C106.842 21.3149 106.751 20.9303 106.601 20.5699C106.463 20.241 106.269 19.942 106.026 19.6883C105.787 19.4397 105.502 19.2431 105.189 19.1101C104.876 18.977 104.542 18.91 104.204 18.913ZM113.161 18.0527C113.705 18.0472 114.245 18.1558 114.747 18.3721C115.223 18.5775 115.648 18.8937 115.99 19.2964L115.387 19.9524C115.098 19.6467 114.756 19.3998 114.381 19.224C113.988 19.0465 113.564 18.958 113.137 18.9641C112.735 18.9607 112.337 19.0433 111.968 19.2069C111.614 19.3632 111.294 19.5921 111.026 19.8799C110.756 20.174 110.544 20.5215 110.403 20.9021C110.104 21.7341 110.104 22.6511 110.403 23.4832C110.541 23.8603 110.75 24.2043 111.02 24.4942C111.289 24.7841 111.612 25.014 111.968 25.1699C112.337 25.3336 112.735 25.4162 113.137 25.4127C113.571 25.4178 114.001 25.3248 114.397 25.1401C114.773 24.9632 115.117 24.7181 115.412 24.4161L115.99 25.0805C115.645 25.4816 115.219 25.7973 114.743 26.0047C113.727 26.4292 112.594 26.4307 111.576 26.0089C111.11 25.811 110.688 25.516 110.335 25.1418C109.982 24.7676 109.705 24.3221 109.522 23.8326C109.137 22.775 109.137 21.6061 109.522 20.5486C109.704 20.0579 109.981 19.6114 110.334 19.2363C110.687 18.8613 111.11 18.5658 111.576 18.3679C112.08 18.1533 112.619 18.0461 113.161 18.0527ZM118.786 21.5623H120.033L123.26 18.1804H124.434L120.782 21.9627L124.5 26.1964H123.318L120.033 22.4398H118.786V26.1964H117.856V13.9297H118.786V21.5623Z" fill="#434346"/>
</g>
</svg>
