<svg width="60" height="40" viewBox="0 0 60 40" fill="none" xmlns="http://www.w3.org/2000/svg">
<path fill-rule="evenodd" clip-rule="evenodd" d="M36.1162 15.5192C36.1162 14.8272 36.7743 14.0792 38.1762 13.8912C39.8186 13.7305 41.4722 14.0286 42.9695 14.7552L43.8238 10.6512C42.3662 10.1105 40.8296 9.84281 39.2838 9.86017C34.4762 9.86017 31.1124 12.4942 31.0838 16.2522C31.0838 19.0322 33.4952 20.5722 35.2895 21.5222C37.0829 22.4722 37.8114 23.0772 37.7981 23.9272C37.7981 25.2222 36.2838 25.7982 34.8962 25.8132C33.162 25.8502 31.4466 25.4294 29.9076 24.5892L29.0381 28.8362C30.7614 29.5233 32.5909 29.8701 34.4343 29.8592C39.5219 29.8592 42.8438 27.2532 42.8438 23.2362C42.8438 20.1822 40.3962 18.8552 38.439 17.7932C37.12 17.0782 36.0238 16.4832 36.0457 15.5612L36.1162 15.5182V15.5192ZM12.6552 23.3212L17.7152 10.1612H22.8448L14.981 29.5132H9.85143L5.94286 14.0492C5.90842 13.6874 5.78466 13.3413 5.58381 13.0452C5.38102 12.7466 5.10892 12.5073 4.79333 12.3502C3.26497 11.6008 1.65533 11.0497 0 10.7092L0.112381 10.1472H8.36667C8.90688 10.1435 9.43088 10.3408 9.84571 10.7042C10.2571 11.0672 10.5286 11.5692 10.6095 12.1202L12.6552 23.3212ZM20.9 29.4992L24.9095 10.1622H29.7571L25.7505 29.4992H20.9ZM52.7543 15.4462L50.1762 22.6452H54.1562L52.7543 15.4462ZM50.7562 10.5352C51.1282 10.2769 51.5655 10.1417 52.0114 10.1472L56.1038 10.1622L60 29.5122H55.5019L54.9124 26.6332H48.7048L47.6952 29.5132H42.6648L49.9381 11.5872C50.1 11.1592 50.3848 10.7922 50.7562 10.5352Z" fill="#434346"/>
</svg>
