<svg width="38" height="40" viewBox="0 0 38 40" fill="none" xmlns="http://www.w3.org/2000/svg">
<path d="M35.1496 3H2.84961V20.02H35.1496V3Z" fill="#FEFEFE"/>
<path d="M35.1496 19.9805H2.84961V37.0005H35.1496V19.9805Z" fill="#1A1F71"/>
<path d="M12.3638 26.3816C12.1036 26.2572 11.8202 26.1957 11.5345 26.2016C10.7498 26.2016 10.2501 26.6676 10.2501 27.2866C10.2501 27.8166 10.6472 28.1706 11.2352 28.4066C11.7045 28.6006 11.905 28.8066 11.905 29.1386C11.905 29.4916 11.6428 29.7326 11.1735 29.7326C10.8476 29.7326 10.5294 29.6296 10.3175 29.5016L10.1836 29.9976C10.3755 30.1256 10.7669 30.2326 11.1374 30.2326C12.0228 30.2326 12.512 29.7426 12.512 29.0866C12.512 28.5506 12.208 28.2066 11.5753 27.9296C11.0756 27.7166 10.8533 27.5516 10.8533 27.2196C10.8533 26.9696 11.049 26.6986 11.5183 26.6986C11.8413 26.6986 12.0902 26.7996 12.2185 26.8726L12.3638 26.3816ZM15.3003 29.6816H13.7489V28.3796H15.1302V27.8896H13.7489V26.7526H15.2119V26.2566H13.1504V30.1766H15.3003V29.6796V29.6816ZM18.3555 29.5926C18.1291 29.6882 17.8869 29.7357 17.643 29.7326C16.8307 29.7326 16.3253 29.1936 16.3253 28.2316C16.3253 27.2136 16.8915 26.7016 17.6544 26.7016C17.8913 26.6987 18.1262 26.7478 18.3441 26.8456L18.4723 26.3606C18.364 26.3036 18.0876 26.2056 17.6325 26.2056C16.54 26.2056 15.6974 26.9336 15.6974 28.2646C15.6974 29.5106 16.4317 30.2326 17.5309 30.2326C17.9584 30.2326 18.2937 30.1506 18.4581 30.0686L18.3555 29.5926ZM21.823 26.2576H21.2235V28.6306C21.2235 29.4106 20.9157 29.7476 20.4208 29.7476C19.9667 29.7476 19.6418 29.4136 19.6418 28.6306V26.2576H19.0452V28.5946C19.0452 29.7626 19.5914 30.2326 20.3989 30.2326C21.2397 30.2326 21.823 29.7426 21.823 28.5796V26.2576ZM24.3253 28.3046C24.7214 28.1546 25.0311 27.8136 25.0311 27.3116C25.0311 26.9946 24.9228 26.7236 24.7157 26.5436C24.4697 26.3236 24.1096 26.2326 23.5938 26.2326C23.2727 26.2324 22.9521 26.2599 22.6352 26.3146V30.1776H23.228V28.5196H23.5881C24.0061 28.5196 24.1961 28.7186 24.3053 29.2396C24.4032 29.7206 24.4953 30.0646 24.5514 30.1776H25.1708C25.0929 30.0276 24.995 29.6236 24.8772 29.1116C24.7822 28.6976 24.6179 28.4226 24.3253 28.3136V28.3046ZM23.228 28.0736V26.7286C23.3002 26.7086 23.4446 26.6926 23.646 26.6926C24.0735 26.6926 24.4336 26.8666 24.4336 27.3726C24.4336 27.7926 24.1239 28.0726 23.6299 28.0726L23.228 28.0736ZM27.8488 29.6806H26.2984V28.3806H27.6788V27.8906H26.2984V26.7536H27.7614V26.2576H25.7009V30.1776H27.8479L27.8488 29.6806Z" fill="#FEFEFE" stroke="#FEFEFE" stroke-width="0.245"/>
<path fill-rule="evenodd" clip-rule="evenodd" d="M18.2396 7.77691L16.6911 15.4079H14.8196L16.3681 7.77691H18.2396ZM26.1208 12.7049L27.1088 9.83691L27.6769 12.7049H26.1208ZM28.2089 15.4079H29.9398L28.4312 7.77691H26.8323C26.6612 7.77633 26.4937 7.82936 26.3513 7.92926C26.2088 8.02916 26.0978 8.17141 26.0324 8.33791L23.2242 15.4159H25.1888L25.5783 14.2739H27.9809L28.2089 15.4079ZM23.323 12.9169C23.3287 10.9019 20.682 10.7919 20.6982 9.88991C20.7029 9.61491 20.9528 9.32691 21.4933 9.25291C21.7593 9.21591 22.4956 9.18791 23.3401 9.59091L23.6679 7.96891C23.1079 7.74499 22.5141 7.6298 21.9151 7.62891C20.0655 7.62891 18.7611 8.66591 18.7497 10.1539C18.7383 11.2539 19.6817 11.8629 20.3932 12.2309C21.12 12.6049 21.3641 12.8459 21.3641 13.1809C21.3584 13.6879 20.7808 13.9169 20.2431 13.9289C19.2998 13.9459 18.7554 13.6589 18.3165 13.4489L17.9783 15.1219C18.4163 15.3339 19.2228 15.5209 20.0607 15.5269C22.0301 15.5319 23.3126 14.5009 23.323 12.9169ZM15.5644 7.77691L12.5282 15.4079H10.5446L9.05307 9.31591C8.96377 8.94091 8.88587 8.80191 8.60847 8.64291C8.15817 8.38591 7.41337 8.14491 6.75977 7.99291L6.80347 7.77091H9.98977C10.3954 7.77091 10.7621 8.05691 10.8562 8.54991L11.6437 12.9679L13.5912 7.77091H15.5634V7.77691H15.5644Z" fill="#1A1F71"/>
</svg>
