<svg width="54" height="40" viewBox="0 0 54 40" fill="none" xmlns="http://www.w3.org/2000/svg">
<mask id="mask0_141_1974" style="mask-type:luminance" maskUnits="userSpaceOnUse" x="0" y="0" width="54" height="40">
<path d="M0 0H54V40H0V0Z" fill="white"/>
</mask>
<g mask="url(#mask0_141_1974)">
<path d="M32.562 9.51953H21.4004V30.4825H32.562V9.51953Z" fill="#FF5F00"/>
<path d="M22.1102 20.0005C22.1102 15.9265 23.9173 12.0375 26.9644 9.51853C21.4372 4.96354 13.395 5.96354 9.03644 11.7785C4.71355 17.5555 5.67108 25.9265 11.234 30.4815C13.4735 32.3337 16.2531 33.3424 19.1176 33.3424C21.982 33.3424 24.7616 32.3337 27.0011 30.4815C25.4773 29.2295 24.2461 27.6364 23.3995 25.8215C22.5529 24.0066 22.1128 22.0167 22.1122 20.0005H22.1102Z" fill="#EB001B"/>
<path d="M47.6222 20.0005C47.6222 27.3705 41.9175 33.3335 34.8657 33.3335C31.996 33.3335 29.2323 32.3335 27 30.4815C32.5273 25.9265 33.4839 17.5555 29.1263 11.7415C28.4879 10.9265 27.7791 10.1485 27 9.51853C32.5273 4.96354 40.5714 5.96354 44.8933 11.7785C46.668 14.1233 47.6294 17.0197 47.6222 20.0005Z" fill="#F79E1B"/>
</g>
</svg>
