<svg width="142" height="34" viewBox="0 0 142 34" fill="none" xmlns="http://www.w3.org/2000/svg">
<path d="M124.074 3.8429H128.686V13.258H124.074V3.8429ZM135.603 3.55469C136.359 3.55469 137.089 3.63795 137.793 3.80448C138.498 3.95819 139.126 4.22719 139.676 4.61148C140.24 4.99577 140.688 5.52097 141.021 6.18707C141.354 6.85317 141.521 7.6922 141.521 8.70416V13.258H136.909V9.28059C136.909 8.31987 136.66 7.64096 136.16 7.24386C135.661 6.83395 134.757 6.629 133.451 6.629C132.759 6.629 132.087 6.70586 131.433 6.85957C130.793 7.01329 130.216 7.19903 129.704 7.41679C129.192 7.62175 128.788 7.8267 128.494 8.03165L128.455 7.30151C128.506 7.07093 128.679 6.75069 128.974 6.34078C129.281 5.91806 129.723 5.49535 130.3 5.07263C130.876 4.64991 131.6 4.29124 132.471 3.99662C133.355 3.702 134.399 3.55469 135.603 3.55469Z" fill="#434346"/>
<path d="M117.958 9.87624H122.493C122.378 10.6192 122.006 11.2661 121.379 11.8169C120.764 12.3677 119.861 12.7968 118.669 13.1043C117.491 13.3989 115.986 13.5462 114.154 13.5462C112.22 13.5462 110.548 13.3925 109.139 13.0851C107.743 12.7776 106.667 12.2588 105.911 11.5287C105.155 10.7985 104.777 9.81219 104.777 8.56966C104.777 7.33993 105.142 6.36 105.873 5.62985C106.616 4.88689 107.685 4.35529 109.081 4.03505C110.478 3.71481 112.168 3.55469 114.154 3.55469C116.101 3.55469 117.696 3.72762 118.938 4.07348C120.181 4.41934 121.097 4.98296 121.686 5.76435C122.275 6.53293 122.557 7.57691 122.532 8.8963H109.466C109.53 9.22935 109.709 9.53679 110.004 9.8186C110.311 10.1004 110.779 10.331 111.406 10.5103C112.047 10.6768 112.899 10.7601 113.962 10.7601C115.063 10.7601 115.967 10.6832 116.671 10.5295C117.388 10.3758 117.818 10.1581 117.958 9.87624ZM113.962 6.34078C112.604 6.34078 111.566 6.48809 110.849 6.78271C110.145 7.07734 109.728 7.37196 109.6 7.66658H118.055C117.965 7.33353 117.606 7.0325 116.979 6.7635C116.351 6.48169 115.345 6.34078 113.962 6.34078Z" fill="#434346"/>
<path d="M94.7009 11.9322C92.8819 11.9322 91.3832 11.7849 90.2047 11.4903C89.0262 11.1828 88.1552 10.7281 87.5915 10.126C87.0279 9.51117 86.7461 8.74259 86.7461 7.8203C86.7461 6.96205 87.0215 6.21909 87.5723 5.59142C88.1231 4.95094 88.9814 4.45136 90.147 4.09269C91.3255 3.73402 92.8435 3.55469 94.7009 3.55469C95.0724 3.55469 95.4502 3.55469 95.8345 3.55469C96.2188 3.55469 96.5967 3.55469 96.9682 3.55469H104.308V5.97571C103.475 6.01414 102.63 5.97571 101.772 5.86042C100.926 5.73233 100.145 5.5658 99.4276 5.36085L99.2163 5.07263C99.7927 5.25196 100.337 5.48254 100.85 5.76435C101.375 6.04616 101.797 6.38562 102.118 6.78271C102.438 7.17981 102.598 7.65377 102.598 8.20458C102.598 8.99878 102.323 9.67769 101.772 10.2413C101.234 10.7921 100.382 11.2148 99.2163 11.5095C98.0634 11.7913 96.5583 11.9322 94.7009 11.9322ZM98.7936 17.3891V16.8703C98.7936 16.486 98.6206 16.2554 98.2748 16.1786C97.9417 16.1145 97.4101 16.0825 96.68 16.0825H91.3191C90.4096 16.0825 89.6731 16.0185 89.1095 15.8904C88.5587 15.7623 88.1359 15.5893 87.8413 15.3716C87.5595 15.1538 87.3674 14.9104 87.2649 14.6414C87.1752 14.3852 87.1304 14.129 87.1304 13.8728C87.1304 13.322 87.3353 12.8929 87.7452 12.5855C88.1552 12.2652 88.7828 12.0411 89.6283 11.913C90.4737 11.7849 91.5497 11.7208 92.8563 11.7208L94.7009 11.9322C93.6249 11.9322 92.8755 11.9898 92.4528 12.1051C92.0301 12.2076 91.8187 12.419 91.8187 12.7392C91.8187 12.9185 91.902 13.053 92.0685 13.1427C92.235 13.2196 92.4592 13.258 92.741 13.258H98.4093C99.6774 13.258 100.677 13.3477 101.407 13.527C102.137 13.7191 102.649 14.033 102.944 14.4685C103.251 14.9168 103.405 15.5253 103.405 16.2939V17.3891H98.7936ZM94.7009 9.41509C95.5463 9.41509 96.2252 9.35105 96.7376 9.22295C97.2628 9.08204 97.6407 8.8963 97.8713 8.66573C98.1018 8.43516 98.2171 8.17896 98.2171 7.89715C98.2171 7.57691 98.1018 7.3015 97.8713 7.07093C97.6407 6.84036 97.2692 6.66102 96.7568 6.53293C96.2444 6.40483 95.5591 6.34078 94.7009 6.34078C93.8554 6.34078 93.1701 6.40483 92.6449 6.53293C92.1197 6.66102 91.7354 6.84036 91.4921 7.07093C91.2487 7.3015 91.127 7.57691 91.127 7.89715C91.127 8.17896 91.2423 8.43516 91.4729 8.66573C91.7162 8.8963 92.1005 9.08204 92.6257 9.22295C93.1509 9.35105 93.8426 9.41509 94.7009 9.41509Z" fill="#434346"/>
<path d="M69.0742 3.84302H73.9739L79.5845 12.8738L75.6071 13.2581L69.0742 3.84302ZM86.7515 3.84302L77.3941 17.101H72.6865L76.7024 11.6633L81.8518 3.84302H86.7515Z" fill="#434346"/>
<path d="M63.207 0H67.8185V13.258H63.207V0Z" fill="#434346"/>
<path d="M50.375 3.84286H61.6731V6.72503H50.375V3.84286ZM53.7183 0.960693H58.3298V13.2579H53.7183V0.960693Z" fill="#434346"/>
<path d="M39.8398 3.8429H44.4513V13.258H39.8398V3.8429ZM49.4086 7.39758C48.576 7.39758 47.8138 7.47444 47.1221 7.62815C46.4304 7.78187 45.8412 7.96761 45.3544 8.18537C44.8676 8.39032 44.5025 8.59528 44.2592 8.80023L44.2207 7.87794C44.2592 7.60894 44.3616 7.2951 44.5282 6.93643C44.6947 6.56495 44.9189 6.18707 45.2007 5.80278C45.4825 5.40568 45.8283 5.0406 46.2383 4.70755C46.6482 4.36169 47.1157 4.08629 47.6409 3.88133C48.1789 3.66357 48.7682 3.55469 49.4086 3.55469V7.39758Z" fill="#434346"/>
<path d="M33.5033 13.258V9.76094C33.5033 9.18451 33.388 8.69774 33.1575 8.30064C32.9269 7.90355 32.517 7.60892 31.9277 7.41678C31.3513 7.21182 30.5315 7.10935 29.4683 7.10935C28.8662 7.10935 28.277 7.16699 27.7006 7.28228C27.1369 7.38476 26.6246 7.51285 26.1634 7.66657C25.7151 7.82028 25.3564 7.974 25.0874 8.12771L25.049 7.20542C25.1002 7.01327 25.2731 6.72506 25.5678 6.34077C25.8752 5.94367 26.3171 5.53376 26.8936 5.11104C27.47 4.67552 28.1937 4.31044 29.0648 4.01582C29.9487 3.70839 30.9926 3.55467 32.1968 3.55467C32.9525 3.55467 33.6827 3.62513 34.3872 3.76603C35.0917 3.90694 35.7194 4.14392 36.2702 4.47697C36.8338 4.79721 37.2822 5.23274 37.6152 5.78355C37.9483 6.33436 38.1148 7.01968 38.1148 7.8395V13.258H33.5033ZM20.6681 13.258V0H25.2796V13.258H20.6681Z" fill="#434346"/>
<path d="M0 8.74256H5.24555C5.33521 9.01156 5.59781 9.24214 6.03334 9.43428C6.46886 9.61362 7.0517 9.75452 7.78185 9.857C8.52481 9.94667 9.38306 9.9915 10.3566 9.9915C11.3173 9.9915 12.0731 9.96588 12.6239 9.91464C13.1875 9.85059 13.5846 9.74812 13.8152 9.60721C14.0458 9.4535 14.161 9.24854 14.161 8.99235C14.161 8.74897 13.9753 8.56323 13.6038 8.43513C13.2324 8.29422 12.5727 8.19815 11.6247 8.14691C10.6768 8.09567 9.34463 8.07006 7.62814 8.07006C6.34717 8.07006 5.23914 8.01241 4.30404 7.89713C3.38174 7.76903 2.61957 7.57688 2.01752 7.32069C1.42827 7.05169 0.992747 6.71864 0.710935 6.32154C0.429123 5.91163 0.288217 5.42487 0.288217 4.86124C0.288217 3.88771 0.614862 3.08711 1.26815 2.45944C1.93425 1.81895 2.93341 1.345 4.26561 1.03757C5.61062 0.717326 7.28868 0.557206 9.29979 0.557206C12.246 0.557206 14.4941 0.986329 16.0441 1.84457C17.6068 2.69001 18.3882 3.91333 18.3882 5.51453H13.4117C13.3476 5.09182 12.9505 4.77158 12.2204 4.55381C11.4902 4.32324 10.4527 4.20795 9.10765 4.20795C7.77545 4.20795 6.7827 4.28481 6.12941 4.43852C5.48893 4.59224 5.16869 4.85484 5.16869 5.22632C5.16869 5.41846 5.25835 5.57218 5.43769 5.68746C5.61702 5.80275 5.92446 5.89882 6.35998 5.97568C6.80832 6.03973 7.43599 6.08456 8.243 6.11018C9.05001 6.1358 10.0748 6.14861 11.3173 6.14861C12.6879 6.14861 13.8536 6.21906 14.8143 6.35997C15.7751 6.48807 16.55 6.68662 17.1393 6.95562C17.7413 7.22462 18.1769 7.57048 18.4459 7.9932C18.7149 8.40311 18.8494 8.88987 18.8494 9.4535C18.8494 10.427 18.5419 11.2212 17.9271 11.8361C17.3122 12.451 16.3387 12.9057 15.0065 13.2003C13.6743 13.4949 11.9322 13.6422 9.78015 13.6422C8.56324 13.6422 7.4424 13.5718 6.41763 13.4309C5.40567 13.29 4.50259 13.085 3.70839 12.816C2.91419 12.5342 2.24169 12.1948 1.69087 11.7977C1.14006 11.3878 0.71734 10.933 0.422718 10.4334C0.140906 9.92105 0 9.35742 0 8.74256Z" fill="#434346"/>
<path d="M4.20701 31L0.763009 21.914H2.23301L5.17301 29.852H4.75301L7.56701 21.914H9.06501L11.879 29.852H11.473L14.413 21.914H15.841L12.439 31H10.913L8.12701 22.922H8.51901L5.71901 31H4.20701Z" fill="#434346"/>
<path d="M17.5826 24.014H18.9266V31H17.5826V24.014ZM21.2926 25.204C20.8073 25.204 20.3919 25.316 20.0466 25.54C19.7106 25.764 19.4399 26.0393 19.2346 26.366C19.0386 26.6927 18.9079 27.0053 18.8426 27.304L18.8286 26.506C18.8379 26.4127 18.8613 26.268 18.8986 26.072C18.9453 25.8667 19.0246 25.638 19.1366 25.386C19.2486 25.134 19.3979 24.896 19.5846 24.672C19.7713 24.4387 20.0046 24.2473 20.2846 24.098C20.5646 23.9487 20.9006 23.874 21.2926 23.874V25.204Z" fill="#434346"/>
<path d="M24.8145 21.13V22.572H23.1485V21.13H24.8145ZM23.3165 24.014H24.6465V31H23.3165V24.014Z" fill="#434346"/>
<path d="M26.7504 24.014H31.2724V25.176H26.7504V24.014ZM28.3464 22.166H29.6764V31H28.3464V22.166Z" fill="#434346"/>
<path d="M38.512 28.732H39.786C39.7114 29.1893 39.534 29.6 39.254 29.964C38.974 30.328 38.6054 30.6173 38.148 30.832C37.6907 31.0467 37.154 31.154 36.538 31.154C35.81 31.154 35.1614 31 34.592 30.692C34.0227 30.384 33.5747 29.9593 33.248 29.418C32.9214 28.8767 32.758 28.2467 32.758 27.528C32.758 26.8 32.9167 26.1653 33.234 25.624C33.5514 25.0733 33.99 24.644 34.55 24.336C35.11 24.028 35.7494 23.874 36.468 23.874C37.224 23.874 37.8587 24.0233 38.372 24.322C38.8854 24.6207 39.2634 25.064 39.506 25.652C39.758 26.2307 39.8607 26.954 39.814 27.822H34.088C34.1347 28.242 34.2607 28.6153 34.466 28.942C34.6807 29.2687 34.9607 29.5253 35.306 29.712C35.6607 29.8987 36.0667 29.992 36.524 29.992C37.0374 29.992 37.4667 29.8753 37.812 29.642C38.1574 29.4087 38.3907 29.1053 38.512 28.732ZM36.482 25.022C35.8754 25.022 35.3714 25.1853 34.97 25.512C34.5687 25.8293 34.3027 26.254 34.172 26.786H38.47C38.4327 26.2167 38.2274 25.7827 37.854 25.484C37.4807 25.176 37.0234 25.022 36.482 25.022Z" fill="#434346"/>
<path d="M49.9998 19.8H51.2038V33.24H49.9998V19.8Z" fill="#34F050"/>
<path d="M70.63 27.892C70.546 28.5733 70.3127 29.1567 69.93 29.642C69.5567 30.1273 69.0667 30.5007 68.46 30.762C67.8533 31.0233 67.1627 31.154 66.388 31.154C65.688 31.154 65.044 31.0467 64.456 30.832C63.8773 30.6173 63.3733 30.3093 62.944 29.908C62.5147 29.5067 62.1787 29.0167 61.936 28.438C61.6933 27.85 61.572 27.192 61.572 26.464C61.572 25.7267 61.6933 25.0687 61.936 24.49C62.1787 23.9113 62.5147 23.4213 62.944 23.02C63.3733 22.6093 63.8773 22.2967 64.456 22.082C65.044 21.8673 65.688 21.76 66.388 21.76C67.172 21.76 67.8673 21.8953 68.474 22.166C69.0807 22.4273 69.5707 22.8053 69.944 23.3C70.3267 23.7853 70.56 24.3687 70.644 25.05H69.356C69.2347 24.6113 69.034 24.238 68.754 23.93C68.474 23.622 68.1333 23.3887 67.732 23.23C67.3307 23.062 66.8827 22.978 66.388 22.978C65.7533 22.978 65.1747 23.1133 64.652 23.384C64.1293 23.6547 63.7093 24.0467 63.392 24.56C63.084 25.0733 62.93 25.708 62.93 26.464C62.93 27.2107 63.084 27.8453 63.392 28.368C63.7093 28.8813 64.1293 29.2733 64.652 29.544C65.1747 29.8053 65.7533 29.936 66.388 29.936C66.8827 29.936 67.326 29.8567 67.718 29.698C68.1193 29.5393 68.46 29.306 68.74 28.998C69.02 28.69 69.2253 28.3213 69.356 27.892H70.63Z" fill="#434346"/>
<path d="M79.534 31H78.204V24.014H79.534V31ZM78.274 27.71L78.288 28.13C78.2787 28.2513 78.246 28.4333 78.19 28.676C78.1433 28.9093 78.0593 29.166 77.938 29.446C77.826 29.726 77.6673 29.9967 77.462 30.258C77.266 30.5193 77.014 30.734 76.706 30.902C76.398 31.07 76.0247 31.154 75.586 31.154C75.2873 31.154 74.9793 31.112 74.662 31.028C74.354 30.944 74.0693 30.804 73.808 30.608C73.5467 30.412 73.3367 30.146 73.178 29.81C73.0193 29.4647 72.94 29.0353 72.94 28.522V24.014H74.284V28.242C74.284 28.6713 74.3493 29.0073 74.48 29.25C74.62 29.4927 74.816 29.6653 75.068 29.768C75.32 29.8707 75.6047 29.922 75.922 29.922C76.4073 29.922 76.8133 29.8053 77.14 29.572C77.476 29.3293 77.7373 29.04 77.924 28.704C78.1107 28.3587 78.2273 28.0273 78.274 27.71Z" fill="#434346"/>
<path d="M81.5035 24.014H86.0255V25.176H81.5035V24.014ZM83.0995 22.166H84.4295V31H83.0995V22.166Z" fill="#434346"/>
<path d="M96.0686 19.8H97.2726V33.24H96.0686V19.8Z" fill="#34F050"/>
<path d="M109.125 27.864V26.688H112.387C112.928 26.688 113.362 26.5247 113.689 26.198C114.025 25.8713 114.193 25.442 114.193 24.91C114.193 24.3593 114.025 23.9253 113.689 23.608C113.362 23.2907 112.928 23.132 112.387 23.132H109.349V31H108.005V21.914H112.331C112.779 21.914 113.194 21.9793 113.577 22.11C113.969 22.2313 114.309 22.418 114.599 22.67C114.897 22.922 115.126 23.2347 115.285 23.608C115.453 23.9813 115.537 24.4153 115.537 24.91C115.537 25.3953 115.453 25.8247 115.285 26.198C115.126 26.5713 114.897 26.884 114.599 27.136C114.309 27.3787 113.969 27.5607 113.577 27.682C113.194 27.8033 112.779 27.864 112.331 27.864H109.125Z" fill="#434346"/>
<path d="M120.879 31.154C120.198 31.154 119.572 31.0093 119.003 30.72C118.434 30.4307 117.981 30.0153 117.645 29.474C117.309 28.9327 117.141 28.284 117.141 27.528C117.141 26.7627 117.309 26.1093 117.645 25.568C117.981 25.0173 118.434 24.5973 119.003 24.308C119.572 24.0187 120.198 23.874 120.879 23.874C121.56 23.874 122.181 24.0187 122.741 24.308C123.301 24.5973 123.749 25.0173 124.085 25.568C124.421 26.1093 124.589 26.7627 124.589 27.528C124.589 28.284 124.421 28.9327 124.085 29.474C123.749 30.0153 123.301 30.4307 122.741 30.72C122.181 31.0093 121.56 31.154 120.879 31.154ZM120.879 29.992C121.299 29.992 121.686 29.8987 122.041 29.712C122.405 29.516 122.694 29.236 122.909 28.872C123.133 28.4987 123.245 28.0507 123.245 27.528C123.245 26.996 123.133 26.5433 122.909 26.17C122.694 25.7967 122.405 25.512 122.041 25.316C121.686 25.12 121.299 25.022 120.879 25.022C120.459 25.022 120.067 25.12 119.703 25.316C119.339 25.5027 119.045 25.7827 118.821 26.156C118.597 26.5293 118.485 26.9867 118.485 27.528C118.485 28.0507 118.592 28.4987 118.807 28.872C119.031 29.236 119.325 29.516 119.689 29.712C120.053 29.8987 120.45 29.992 120.879 29.992Z" fill="#434346"/>
<path d="M126.387 28.732H127.619C127.666 29.1053 127.834 29.4133 128.123 29.656C128.412 29.8893 128.818 30.006 129.341 30.006C129.677 30.006 129.938 29.9687 130.125 29.894C130.312 29.81 130.442 29.698 130.517 29.558C130.601 29.418 130.643 29.264 130.643 29.096C130.643 28.8813 130.587 28.718 130.475 28.606C130.363 28.4847 130.204 28.3867 129.999 28.312C129.794 28.228 129.551 28.1487 129.271 28.074C128.963 27.99 128.655 27.892 128.347 27.78C128.039 27.668 127.754 27.5327 127.493 27.374C127.241 27.2153 127.036 27.0193 126.877 26.786C126.728 26.5433 126.653 26.2493 126.653 25.904C126.653 25.6147 126.714 25.344 126.835 25.092C126.966 24.84 127.148 24.6253 127.381 24.448C127.624 24.2613 127.904 24.1213 128.221 24.028C128.538 23.9253 128.888 23.874 129.271 23.874C129.803 23.874 130.251 23.972 130.615 24.168C130.979 24.3547 131.254 24.6207 131.441 24.966C131.637 25.3113 131.74 25.708 131.749 26.156H130.573C130.508 25.764 130.372 25.4793 130.167 25.302C129.962 25.1153 129.654 25.022 129.243 25.022C128.842 25.022 128.534 25.1013 128.319 25.26C128.104 25.4187 127.997 25.6333 127.997 25.904C127.997 26.1093 128.072 26.2773 128.221 26.408C128.37 26.5293 128.571 26.6367 128.823 26.73C129.075 26.8233 129.36 26.9213 129.677 27.024C129.976 27.1267 130.26 27.234 130.531 27.346C130.811 27.4487 131.058 27.5747 131.273 27.724C131.497 27.864 131.67 28.0507 131.791 28.284C131.922 28.508 131.987 28.788 131.987 29.124C131.987 29.5347 131.884 29.894 131.679 30.202C131.474 30.5007 131.175 30.734 130.783 30.902C130.4 31.07 129.934 31.154 129.383 31.154C128.879 31.154 128.45 31.0933 128.095 30.972C127.75 30.8507 127.456 30.692 127.213 30.496C126.98 30.3 126.798 30.0947 126.667 29.88C126.546 29.656 126.462 29.4413 126.415 29.236C126.378 29.0307 126.368 28.8627 126.387 28.732Z" fill="#434346"/>
<path d="M133.604 24.014H138.126V25.176H133.604V24.014ZM135.2 22.166H136.53V31H135.2V22.166Z" fill="#434346"/>
</svg>
