<svg width="1311" height="86" viewBox="0 0 1311 86" fill="none" xmlns="http://www.w3.org/2000/svg">
<path d="M873.71 85C946.49 85 1019.27 85 1091.92 85C1164.57 85 1237.35 85 1310 85H873.71ZM873.71 85C860.477 71.0178 847.115 56.9822 833.882 43C820.649 29.0178 807.287 14.9822 794.054 1M873.71 85L794.054 1M873.71 85C801.06 85 728.28 85 655.63 85C582.98 85 510.2 85 437.42 85M809.882 17.8107C757.34 17.8107 704.539 17.8107 651.868 17.8107C599.326 17.8107 546.525 17.8107 493.724 17.8107H809.882ZM809.882 17.8107C862.683 17.8107 915.484 17.8107 968.025 17.8107C1020.7 17.8107 1073.5 17.8107 1126.04 17.8107H809.882ZM825.839 34.6213C768.238 34.6213 710.507 34.6213 652.776 34.6213C595.174 34.6213 537.444 34.6213 479.713 34.6213H825.839ZM825.839 34.6213C883.57 34.6213 941.301 34.6213 999.031 34.6213C1056.63 34.6213 1114.36 34.6213 1171.96 34.6213H825.839ZM841.666 51.432C779.135 51.432 716.215 51.432 653.684 51.432C591.023 51.432 528.233 51.432 465.442 51.432H841.666ZM841.666 51.432C904.586 51.432 967.247 51.432 1029.91 51.432C1092.44 51.432 1155.36 51.432 1217.89 51.432H841.666ZM451.561 68.2427C383.84 68.2427 316.12 68.2427 248.529 68.2427C180.939 68.2427 112.959 68.2427 45.1091 68.2427H451.561ZM451.561 68.2427C519.281 68.2427 587.131 68.2427 654.722 68.2427C722.442 68.2427 790.033 68.2427 857.753 68.2427H451.561ZM507.994 1C460.382 1 412.511 1 364.899 1C317.288 1 269.416 1 221.675 1H507.994ZM507.994 1C496.189 14.9822 484.513 29.0178 472.707 43C460.901 56.9822 449.225 71.0178 437.42 85M507.994 1L437.42 85M794.054 1C746.442 1 698.571 1 650.959 1C603.348 1 555.736 1 507.865 1H794.054ZM794.054 1C841.666 1 889.537 1 937.149 1C984.891 1 1032.63 1 1080.11 1H794.054ZM437.42 85C364.77 85 291.99 85 219.34 85C146.689 85 73.7799 85 1 85H437.42ZM279.146 1C247.232 14.9822 215.448 29.0178 183.663 43C152.009 57.0356 120.094 71.0178 88.1802 85L279.146 1ZM565.336 1C558.59 14.9822 551.844 29.0178 544.968 43C538.222 57.0356 531.476 71.0178 524.73 85L565.336 1ZM851.266 1C869.558 14.9822 887.851 29.0178 906.143 43C924.435 57.0356 942.857 71.0178 961.02 85L851.266 1ZM493.853 17.8107C441.312 17.8107 388.511 17.8107 335.839 17.8107C283.298 17.8107 230.367 17.8107 177.566 17.8107H493.853ZM336.358 1C309.504 14.9822 282.649 29.0178 255.924 43C229.199 57.0356 202.345 71.0178 175.49 85L336.358 1ZM622.548 1C620.732 14.9822 618.915 29.0178 617.229 43C615.413 57.0356 613.856 71.0178 612.04 85L622.548 1ZM908.608 1C931.83 14.9822 955.312 29.0178 978.534 43C1001.76 56.9822 1024.98 71.0178 1048.33 85L908.608 1ZM479.842 34.6213C422.111 34.6213 364.38 34.6213 306.779 34.6213C249.178 34.6213 191.317 34.6213 133.457 34.6213H479.842ZM393.57 1C371.645 14.9822 349.85 29.0178 328.055 43C306.39 56.9822 284.595 71.0178 262.8 85L393.57 1ZM679.63 1C682.874 14.9822 686.117 29.0178 689.49 43C692.733 57.0356 695.847 71.0178 699.22 85L679.63 1ZM965.69 1C994.102 14.9822 1022.38 29.0178 1050.66 43C1078.95 57.0356 1107.23 71.0178 1135.51 85L965.69 1ZM465.572 51.432C403.041 51.432 340.12 51.432 277.589 51.432C214.929 51.432 152.138 51.432 89.218 51.432H465.572ZM450.782 1C434.047 14.9822 417.311 29.0178 400.576 43C383.84 57.0356 366.975 71.0178 350.24 85L450.782 1ZM736.842 1C745.145 14.9822 753.578 29.0178 761.751 43C770.054 57.0356 778.227 71.0178 786.53 85L736.842 1ZM1023.03 1C1056.37 14.9822 1089.58 29.0178 1122.93 43C1156.14 57.0356 1189.48 71.0178 1222.82 85L1023.03 1ZM1263.82 68.2427C1196.22 68.2427 1128.5 68.2427 1060.78 68.2427C993.193 68.2427 925.473 68.2427 857.623 68.2427H1263.82ZM221.805 1C184.961 14.9822 148.116 29.0178 111.402 43C74.688 56.9822 37.844 71.0178 1.12976 85L221.805 1ZM1309.87 85C1271.6 71.0178 1233.2 56.9822 1194.93 43C1156.66 29.0178 1118.39 14.9822 1079.98 1L1309.87 85Z" stroke="#DFE2E2" stroke-width="2" stroke-miterlimit="10"/>
</svg>
